<svg width="46" height="16" viewBox="0 0 46 16" fill="none" xmlns="http://www.w3.org/2000/svg">
<path d="M1.81294 12.2062C1.60902 11.9896 1.33712 11.6435 1.16919 11.3872C0.189567 9.88672 0.145583 8.33336 0.969266 6.8434C1.87692 5.20814 3.61224 3.95858 5.85538 3.31927C8.67429 2.51881 11.7891 2.67468 14.492 3.73403C16.2074 4.3839 17.4229 5.38778 18.3466 6.80905C18.4625 6.99134 18.5665 7.18419 18.6704 7.35062L1.81294 12.2062ZM7.44277 5.73121C5.43954 6.29919 4.40794 7.54083 4.62386 8.9938L13.1006 6.58186C11.6411 5.45118 9.74588 5.07605 7.44277 5.73121ZM14.1562 10.9778C14.1522 10.9778 14.1522 10.9804 14.1522 10.9804L13.9762 10.9012C13.4684 11.4427 12.6807 11.8839 11.6851 12.1692C9.78986 12.7134 8.03454 12.5734 6.77103 11.8416L6.65507 11.9579C6.65507 11.9579 6.65507 11.9552 6.65107 11.9552L4.4999 14.0819C5.03569 14.3275 5.60748 14.5336 6.20724 14.7C8.58233 15.3526 11.0134 15.3209 13.4085 14.634C15.1398 14.1373 16.4993 13.3818 17.4269 12.4228L14.1562 10.9778ZM24.5602 0.191406V12.0107L27.3431 12.7557L25.7637 15.1914L22.6929 14.346C22.0051 14.1479 21.5333 13.8467 21.1815 13.506C20.8416 13.1599 20.5897 12.6817 20.5897 12.0424V0.191406H24.5602ZM31.7654 9.00173C31.7654 7.99521 32.4411 7.09172 33.5047 6.47883L30.6498 4.37598C28.7146 5.50666 27.495 7.15777 27.495 8.99644C27.491 10.8378 28.7106 12.4915 30.6418 13.6222L33.4927 11.5193C32.4331 10.9038 31.7654 10.0056 31.7654 9.00173ZM36.8354 12.3541C36.2756 12.3541 35.7318 12.2907 35.228 12.1798L33.8646 14.8559C34.7962 15.062 35.7918 15.1756 36.8314 15.1756C41.3497 15.1782 45.1202 13.0595 45.9959 10.246L41.8055 9.68066C41.3297 11.2103 39.2865 12.3568 36.8354 12.3541ZM36.8474 2.8279C35.8118 2.8279 34.8162 2.93885 33.8846 3.14227L35.236 5.82103C35.7439 5.71007 36.2836 5.64931 36.8434 5.64931C39.2985 5.65196 41.3457 6.80377 41.8095 8.336L45.9999 7.77594C45.1402 4.95717 41.3697 2.83054 36.8474 2.8279Z" fill="#9E9E9E"/>
</svg>
