<svg width="46" height="23" viewBox="0 0 46 23" fill="none" xmlns="http://www.w3.org/2000/svg">
<path d="M44.5399 16.2259C44.5399 17.1335 42.8463 18.2491 41.4688 18.2491H40.2146C40.216 12.6949 40.216 6.46809 40.2146 5.36283C40.2141 5.33011 40.2237 5.29764 40.2428 5.26728C40.2619 5.23692 40.2902 5.20927 40.3261 5.18592C40.362 5.16257 40.4047 5.14397 40.4518 5.13118C40.4989 5.1184 40.5495 5.11169 40.6007 5.11143H44.1521C44.3654 5.11143 44.5401 5.22586 44.5401 5.36481V16.2259H44.5399ZM38.7528 20.1981C38.7528 20.7726 38.3131 21.7349 35.368 21.7349C29.6606 21.7349 26.157 18.876 26.157 16.8257C26.157 16.8257 26.1506 10.1959 26.1506 5.36493C26.15 5.33215 26.1596 5.29963 26.1787 5.26922C26.1979 5.23882 26.2263 5.21113 26.2622 5.18777C26.2982 5.1644 26.341 5.14581 26.3882 5.13307C26.4355 5.12033 26.4862 5.11369 26.5375 5.11353H30.0931C30.3066 5.11353 30.4819 5.22722 30.4819 5.36702V16.0195C30.4819 17.7795 32.6606 19.2071 35.3464 19.2071H38.7547L38.7528 20.1981ZM44.4217 4.15608H40.3306C39.4608 4.15608 38.7524 4.62058 38.7524 5.19039V18.2502H35.3439C33.4634 18.2502 31.9393 17.2512 31.9393 16.0192V5.19039C31.9393 4.61922 31.2319 4.15559 30.3603 4.15559H26.2675C25.396 4.15559 24.6887 4.61922 24.6874 5.19039C24.6853 9.9122 24.6937 16.8259 24.6937 16.8259C24.6943 20.46 30.9103 22.6914 35.3669 22.6914C38.3561 22.6914 40.2127 21.734 40.2127 20.1916V19.2069H41.4683C43.6705 19.2069 45.9999 17.675 45.9999 16.2259V5.19039C46.002 4.61922 45.2948 4.15559 44.4218 4.15559V4.15608H44.4217ZM20.243 18.018C20.2435 18.0507 20.2339 18.0832 20.2147 18.1136C20.1956 18.1439 20.1672 18.1715 20.1313 18.1948C20.0953 18.2182 20.0525 18.2367 20.0054 18.2494C19.9582 18.2621 19.9076 18.2688 19.8564 18.2689H16.3007C16.0844 18.2689 15.911 18.1542 15.9119 18.016V7.36345C15.9119 5.60352 13.7326 4.17592 11.0474 4.17592H7.63893V3.18472C7.63893 2.61146 8.07857 1.64786 11.0237 1.64786C16.7313 1.64786 20.2359 4.50664 20.2359 6.55715C20.2359 6.55715 20.2423 13.2191 20.2423 18.0179H20.243V18.018ZM2.23784 18.2711C2.02149 18.2671 1.84849 18.1556 1.85099 18.0173V7.15812C1.85099 6.25044 3.54482 5.13336 4.92173 5.13336H6.17707C6.17514 13.0872 6.17514 17.1571 6.17707 18.0168C6.17804 18.0832 6.13783 18.1472 6.06522 18.1947C5.99261 18.2422 5.89352 18.2694 5.78964 18.2703H2.23842L2.23784 18.2711ZM21.6953 6.55727C21.696 2.92285 15.4798 0.691406 11.0239 0.691406C8.03388 0.691406 6.17707 1.64873 6.17707 3.19125V4.17592H4.9223C2.71929 4.17592 0.389893 5.70785 0.389893 7.15701V18.1924C0.389893 18.7636 1.09713 19.2272 1.96832 19.2272H6.05859C6.08402 19.2272 6.10579 19.2228 6.13122 19.2228C6.96715 19.197 7.63681 18.747 7.63681 18.1924V5.13262H11.0459C12.9256 5.13262 14.4505 6.13157 14.4505 7.36357V18.1925C14.4505 18.7637 15.1579 19.2273 16.0289 19.2273H20.1224C20.994 19.2273 21.7008 18.7649 21.7008 18.1925C21.7039 13.3827 21.6958 6.55702 21.6958 6.55702L21.6953 6.55727Z" fill="#9E9E9E"/>
</svg>
