<svg width="46" height="16" viewBox="0 0 46 16" fill="none" xmlns="http://www.w3.org/2000/svg">
<path fill-rule="evenodd" clip-rule="evenodd" d="M45.9916 7.63142C45.9916 3.37297 43.5851 0.320678 40.6163 0.320678C37.6474 0.320678 35.2409 3.37297 35.2409 7.63142L35.2324 13.8143C35.2324 14.455 35.5947 14.974 36.0413 14.974C36.4879 14.974 36.857 14.455 36.857 13.8143L36.8585 7.63142C36.8585 4.65432 38.5406 2.64102 40.6163 2.64102C42.6914 2.64102 44.3741 4.65432 44.3741 7.63142L44.3826 13.8143C44.3826 14.122 44.4678 14.417 44.6194 14.6346C44.7711 14.8521 44.9768 14.9743 45.1912 14.9743C45.4057 14.9743 45.6114 14.8521 45.763 14.6346C45.9147 14.417 45.9999 14.122 45.9999 13.8143L45.9916 7.63142ZM11.1491 7.63142C11.1491 3.37297 8.74239 0.320678 5.77376 0.320678C2.80512 0.320678 0.398425 3.37297 0.398425 7.63142L0.389893 13.8143C0.389893 13.9667 0.410811 14.1175 0.451452 14.2582C0.492094 14.3989 0.551663 14.5268 0.626756 14.6345C0.70185 14.7421 0.790997 14.8276 0.889106 14.8858C0.987214 14.9441 1.09236 14.974 1.19855 14.974C1.64541 14.974 2.01427 14.455 2.01427 13.8143L2.01573 7.63142C2.01573 4.65432 3.69813 2.64102 5.77351 2.64102C7.84866 2.64102 9.5313 4.65432 9.5313 7.63142L9.53983 13.8143C9.53983 14.122 9.62503 14.417 9.77668 14.6346C9.92833 14.8521 10.134 14.9743 10.3485 14.9743C10.563 14.9743 10.7686 14.8521 10.9203 14.6346C11.0719 14.417 11.1571 14.122 11.1571 13.8143L11.1491 7.63142ZM28.1744 2.37174C30.2223 2.37174 31.8832 4.75363 31.8832 7.69122C31.8832 10.6292 30.2225 13.011 28.1744 13.011C26.1263 13.011 24.4661 10.6292 24.4661 7.69122C24.4661 4.75328 26.1263 2.37174 28.1744 2.37174V0.0513981C25.2333 0.0513981 22.8486 3.47194 22.8486 7.69122C22.8486 11.9105 25.2331 15.3314 28.1744 15.3314C31.116 15.3314 33.5008 11.9109 33.5008 7.69122C33.5008 3.47194 31.1162 0.0513981 28.1744 0.0513981V2.37174ZM21.7164 13.2338C20.7627 14.5236 19.4619 15.3314 18.0481 15.3314C15.1068 15.3314 12.7223 11.9109 12.7223 7.69122C12.7223 3.47194 15.1068 0.0513981 18.0481 0.0513981C18.7477 0.0500881 19.4405 0.247081 20.0868 0.631058C20.7331 1.01503 21.3201 1.57843 21.8142 2.28886C22.0095 2.64906 21.9817 3.04914 21.8422 3.28939L18.7302 8.59173C18.66 8.7059 18.5747 8.79909 18.4793 8.86598C18.3839 8.93288 18.2802 8.97216 18.1743 8.9816C18.0683 8.99103 17.962 8.97043 17.8616 8.92097C17.7612 8.8715 17.6685 8.79415 17.5889 8.69332C17.5093 8.59249 17.4444 8.47017 17.3977 8.33332C17.3511 8.19648 17.3237 8.0478 17.3172 7.89577C17.3106 7.74375 17.3249 7.59135 17.3594 7.44729C17.3939 7.30322 17.4478 7.17031 17.5181 7.05614L19.8997 3.05368C19.3743 2.64417 18.6883 2.37174 18.0484 2.37174C16.0005 2.37174 14.3401 4.75363 14.3401 7.69122C14.3401 10.6292 16.0005 13.011 18.0484 13.011C19.0157 13.011 19.9126 12.4634 20.573 11.593C20.6475 11.481 20.7368 11.3915 20.8357 11.3297C20.9346 11.268 21.0411 11.2352 21.1489 11.2334C21.2568 11.2315 21.3638 11.2607 21.4637 11.3191C21.5636 11.3774 21.6544 11.4639 21.7306 11.5733C21.8069 11.6828 21.8671 11.813 21.9078 11.9563C21.9484 12.0996 21.9687 12.2531 21.9673 12.4079C21.966 12.5626 21.9431 12.7154 21.9001 12.8572C21.857 12.999 21.7945 13.1271 21.7164 13.2338C21.8629 13.024 21.7164 13.2338 21.7164 13.2338Z" fill="#9E9E9E"/>
</svg>
